<svg xmlns="http://www.w3.org/2000/svg" width="1033.8692626953125" height="767.3809814453125" viewBox="-525.9637451171875 -361.2509460449219 1033.8692626953125 767.3809814453125"><title>Neo4j Graph Visualization</title><desc>Created using Neo4j (http://www.neo4j.com/)</desc><g class="layer relationships"><g class="relationship" transform="translate(337.6932377107307 153.69290800484632) rotate(287.62207036521465)"><path class="outline" fill="#A5ABB6" stroke="none" d="M 25 0.5 L 51.17346324307651 0.5 L 51.17346324307651 -0.5 L 25 -0.5 Z M 97.91565074307651 0.5 L 124.08911398615302 0.5 L 124.08911398615302 3.5 L 131.08911398615302 0 L 124.08911398615302 -3.5 L 124.08911398615302 -0.5 L 97.91565074307651 -0.5 Z"/><text text-anchor="middle" pointer-events="none" font-size="8px" fill="#000000" x="74.54455699307651" y="3" font-family="sans-serif">CONTAINS</text></g><g class="relationship" transform="translate(337.6932377107307 153.69290800484632) rotate(320.55924730258266)"><path class="outline" fill="#A5ABB6" stroke="none" d="M 25 0.5 L 64.5541946668651 0.5 L 64.5541946668651 -0.5 L 25 -0.5 Z M 111.2963821668651 0.5 L 150.8505768337302 0.5 L 150.8505768337302 3.5 L 157.8505768337302 0 L 150.8505768337302 -3.5 L 150.8505768337302 -0.5 L 111.2963821668651 -0.5 Z"/><text text-anchor="middle" pointer-events="none" font-size="8px" fill="#000000" x="87.9252884168651" y="3" font-family="sans-serif">CONTAINS</text></g><g class="relationship" transform="translate(137.6410015693333 -332.2509373112603) rotate(373.10262738581855)"><path class="outline" fill="#A5ABB6" stroke="none" d="M 25 0.5 L 66.2392859119386 0.5 L 66.2392859119386 -0.5 L 25 -0.5 Z M 112.9814734119386 0.5 L 154.2207593238772 0.5 L 154.2207593238772 3.5 L 161.2207593238772 0 L 154.2207593238772 -3.5 L 154.2207593238772 -0.5 L 112.9814734119386 -0.5 Z"/><text text-anchor="middle" pointer-events="none" font-size="8px" fill="#000000" x="89.6103796619386" y="3" font-family="sans-serif">CONTAINS</text></g><g class="relationship" transform="translate(137.6410015693333 -332.2509373112603) rotate(440.9407904192549)"><path class="outline" fill="#A5ABB6" stroke="none" d="M 25 0.5 L 87.4240146866822 0.5 L 87.4240146866822 -0.5 L 25 -0.5 Z M 134.1662021866822 0.5 L 196.5902168733644 0.5 L 196.5902168733644 3.5 L 203.5902168733644 0 L 196.5902168733644 -3.5 L 196.5902168733644 -0.5 L 134.1662021866822 -0.5 Z"/><text text-anchor="middle" pointer-events="none" font-size="8px" fill="#000000" x="110.7951084366822" y="3" font-family="sans-serif">CONTAINS</text></g><g class="relationship" transform="translate(-5.769406645199695 -94.33234111057334) rotate(249.63889494519077)"><path class="outline" fill="#A5ABB6" stroke="none" d="M 25 0.5 L 61.286941219577514 0.5 L 61.286941219577514 -0.5 L 25 -0.5 Z M 108.02912871957751 0.5 L 144.31606993915503 0.5 L 144.31606993915503 3.5 L 151.31606993915503 0 L 144.31606993915503 -3.5 L 144.31606993915503 -0.5 L 108.02912871957751 -0.5 Z"/><text text-anchor="middle" pointer-events="none" font-size="8px" fill="#000000" x="84.65803496957751" y="3" transform="rotate(180 84.65803496957751 0)" font-family="sans-serif">CONTAINS</text></g><g class="relationship" transform="translate(-5.769406645199695 -94.33234111057334) rotate(417.5826381644339)"><path class="outline" fill="#A5ABB6" stroke="none" d="M 25 0.5 L 94.63332672381394 0.5 L 94.63332672381394 -0.5 L 25 -0.5 Z M 141.37551422381392 0.5 L 211.00884094762787 0.5 L 211.00884094762787 3.5 L 218.00884094762787 0 L 211.00884094762787 -3.5 L 211.00884094762787 -0.5 L 141.37551422381392 -0.5 Z"/><text text-anchor="middle" pointer-events="none" font-size="8px" fill="#000000" x="118.00442047381394" y="3" font-family="sans-serif">CONTAINS</text></g><g class="relationship" transform="translate(-5.769406645199695 -94.33234111057334) rotate(393.1726590451051)"><path class="outline" fill="#A5ABB6" stroke="none" d="M 25 0.5 L 111.62769537864114 0.5 L 111.62769537864114 -0.5 L 25 -0.5 Z M 158.36988287864114 0.5 L 244.99757825728227 0.5 L 244.99757825728227 3.5 L 251.99757825728227 0 L 244.99757825728227 -3.5 L 244.99757825728227 -0.5 L 158.36988287864114 -0.5 Z"/><text text-anchor="middle" pointer-events="none" font-size="8px" fill="#000000" x="134.99878912864114" y="3" font-family="sans-serif">CONTAINS</text></g><g class="relationship" transform="translate(478.90543118091875 37.53159833692782) rotate(251.73748209174204)"><path class="outline" fill="#A5ABB6" stroke="none" d="M 25 0.5 L 68.28072678234814 0.5 L 68.28072678234814 -0.5 L 25 -0.5 Z M 100.95260178234814 0.5 L 144.23332856469628 0.5 L 144.23332856469628 3.5 L 151.23332856469628 0 L 144.23332856469628 -3.5 L 144.23332856469628 -0.5 L 100.95260178234814 -0.5 Z"/><text text-anchor="middle" pointer-events="none" font-size="8px" fill="#000000" x="84.61666428234814" y="3" transform="rotate(180 84.61666428234814 0)" font-family="sans-serif">TYPED</text></g><g class="relationship" transform="translate(384.94719372244685 4.928412421306401) rotate(239.47149340820897)"><path class="outline" fill="#A5ABB6" stroke="none" d="M 25 0.5 L 89.80970030420747 0.5 L 89.80970030420747 -0.5 L 25 -0.5 Z M 122.48157530420747 0.5 L 187.29127560841494 0.5 L 187.29127560841494 3.5 L 194.29127560841494 0 L 187.29127560841494 -3.5 L 187.29127560841494 -0.5 L 122.48157530420747 -0.5 Z"/><text text-anchor="middle" pointer-events="none" font-size="8px" fill="#000000" x="106.14563780420747" y="3" transform="rotate(180 106.14563780420747 0)" font-family="sans-serif">TYPED</text></g><g class="relationship" transform="translate(173.633688012031 -106.512119708152) rotate(217.61155970331419)"><path class="outline" fill="#A5ABB6" stroke="none" d="M 25 0.5 L 57.32598129164907 0.5 L 57.32598129164907 -0.5 L 25 -0.5 Z M 89.99785629164907 0.5 L 122.32383758329814 0.5 L 122.32383758329814 3.5 L 129.32383758329814 0 L 122.32383758329814 -3.5 L 122.32383758329814 -0.5 L 89.99785629164907 -0.5 Z"/><text text-anchor="middle" pointer-events="none" font-size="8px" fill="#000000" x="73.66191879164907" y="3" transform="rotate(180 73.66191879164907 0)" font-family="sans-serif">TYPED</text></g><g class="relationship" transform="translate(319.0136100936598 -290.0354415751825) rotate(416.8434497312337)"><path class="outline" fill="#A5ABB6" stroke="none" d="M 25 0.5 L 75.84873913319207 0.5 L 75.84873913319207 -0.5 L 25 -0.5 Z M 108.52061413319207 0.5 L 159.36935326638414 0.5 L 159.36935326638414 3.5 L 166.36935326638414 0 L 159.36935326638414 -3.5 L 159.36935326638414 -0.5 L 108.52061413319207 -0.5 Z"/><text text-anchor="middle" pointer-events="none" font-size="8px" fill="#000000" x="92.18467663319207" y="3" font-family="sans-serif">TYPED</text></g><g class="relationship" transform="translate(226.0846324814321 57.23072464446314) rotate(316.56939554835395)"><path class="outline" fill="#A5ABB6" stroke="none" d="M 25 0.5 L 116.20941939723082 0.5 L 116.20941939723082 -0.5 L 25 -0.5 Z M 148.88129439723082 0.5 L 240.09071379446164 0.5 L 240.09071379446164 3.5 L 247.09071379446164 0 L 240.09071379446164 -3.5 L 240.09071379446164 -0.5 L 148.88129439723082 -0.5 Z"/><text text-anchor="middle" pointer-events="none" font-size="8px" fill="#000000" x="132.54535689723082" y="3" font-family="sans-serif">TYPED</text></g><g class="relationship" transform="translate(124.50340940363937 110.80734343977115) rotate(296.82343497256545)"><path class="outline" fill="#A5ABB6" stroke="none" d="M 25 0.5 L 145.32029967259896 0.5 L 145.32029967259896 -0.5 L 25 -0.5 Z M 177.99217467259896 0.5 L 298.3124743451979 0.5 L 298.3124743451979 3.5 L 305.3124743451979 0 L 298.3124743451979 -3.5 L 298.3124743451979 -0.5 L 177.99217467259896 -0.5 Z"/><text text-anchor="middle" pointer-events="none" font-size="8px" fill="#000000" x="161.65623717259896" y="3" font-family="sans-serif">TYPED</text></g><g class="relationship" transform="translate(-67.11606150761112 -259.6319008679459) rotate(386.44322666070474)"><path class="outline" fill="#A5ABB6" stroke="none" d="M 25 0.5 L 46.337136264210514 0.5 L 46.337136264210514 -0.5 L 25 -0.5 Z M 79.00901126421051 0.5 L 100.34614752842103 0.5 L 100.34614752842103 3.5 L 107.34614752842103 0 L 100.34614752842103 -3.5 L 100.34614752842103 -0.5 L 79.00901126421051 -0.5 Z"/><text text-anchor="middle" pointer-events="none" font-size="8px" fill="#000000" x="62.673073764210514" y="3" font-family="sans-serif">TYPED</text></g><g class="relationship" transform="translate(-180.3515956587023 168.383902323026) rotate(188.8754737864731)"><path class="outline" fill="#A5ABB6" stroke="none" d="M 25 0.5 L 69.5935879369855 0.5 L 69.5935879369855 -0.5 L 25 -0.5 Z M 105.8162441869855 0.5 L 150.409832123971 0.5 L 150.409832123971 3.5 L 157.409832123971 0 L 150.409832123971 -3.5 L 150.409832123971 -0.5 L 105.8162441869855 -0.5 Z"/><text text-anchor="middle" pointer-events="none" font-size="8px" fill="#000000" x="87.7049160619855" y="3" transform="rotate(180 87.7049160619855 0)" font-family="sans-serif">WORKS</text></g><g class="relationship" transform="translate(3.2476896095073187 43.38552096987699) rotate(217.63765872461016)"><path class="outline" fill="#A5ABB6" stroke="none" d="M 25 0.5 L 146.77658900645696 0.5 L 146.77658900645696 -0.5 L 25 -0.5 Z M 182.99924525645696 0.5 L 304.7758342629139 0.5 L 304.7758342629139 3.5 L 311.7758342629139 0 L 304.7758342629139 -3.5 L 304.7758342629139 -0.5 L 182.99924525645696 -0.5 Z"/><text text-anchor="middle" pointer-events="none" font-size="8px" fill="#000000" x="164.88791713145696" y="3" transform="rotate(180 164.88791713145696 0)" font-family="sans-serif">WORKS</text></g><g class="relationship" transform="translate(221.3423765091115 349.2647510900346) rotate(235.55960041495672)"><path class="outline" fill="#A5ABB6" stroke="none" d="M 25 0.5 L 56.20939190556703 0.5 L 56.20939190556703 -0.5 L 25 -0.5 Z M 92.43204815556703 0.5 L 123.64144006113406 0.5 L 123.64144006113406 3.5 L 130.64144006113406 0 L 123.64144006113406 -3.5 L 123.64144006113406 -0.5 L 92.43204815556703 -0.5 Z"/><text text-anchor="middle" pointer-events="none" font-size="8px" fill="#000000" x="74.32072003056703" y="3" transform="rotate(180 74.32072003056703 0)" font-family="sans-serif">WORKS</text></g><g class="relationship" transform="translate(-496.9637148847439 196.842916431148) rotate(337.4607678104072)"><path class="outline" fill="#A5ABB6" stroke="none" d="M 25 0.5 L 52.221451465630025 0.5 L 52.221451465630025 -0.5 L 25 -0.5 Z M 88.44410771563003 0.5 L 115.66555918126005 0.5 L 115.66555918126005 3.5 L 122.66555918126005 0 L 115.66555918126005 -3.5 L 115.66555918126005 -0.5 L 88.44410771563003 -0.5 Z"/><text text-anchor="middle" pointer-events="none" font-size="8px" fill="#000000" x="70.33277959063003" y="3" font-family="sans-serif">WORKS</text></g><g class="relationship" transform="translate(125.70366435787206 377.13002627863233) rotate(272.7909346814185)"><path class="outline" fill="#A5ABB6" stroke="none" d="M 25 0.5 L 56.593982203336665 0.5 L 56.593982203336665 -0.5 L 25 -0.5 Z M 92.81663845333667 0.5 L 124.41062065667333 0.5 L 124.41062065667333 3.5 L 131.41062065667333 0 L 124.41062065667333 -3.5 L 124.41062065667333 -0.5 L 92.81663845333667 -0.5 Z"/><text text-anchor="middle" pointer-events="none" font-size="8px" fill="#000000" x="74.70531032833667" y="3" font-family="sans-serif">WORKS</text></g><g class="relationship" transform="translate(-464.28190883038513 -100.75974403991142) rotate(342.9715549327682)"><path class="outline" fill="#A5ABB6" stroke="none" d="M 25 0.5 L 85.8547681046457 0.5 L 85.8547681046457 -0.5 L 25 -0.5 Z M 117.1946118546457 0.5 L 178.0493799592914 0.5 L 178.0493799592914 3.5 L 185.0493799592914 0 L 178.0493799592914 -3.5 L 178.0493799592914 -0.5 L 117.1946118546457 -0.5 Z"/><text text-anchor="middle" pointer-events="none" font-size="8px" fill="#000000" x="101.5246899796457" y="3" font-family="sans-serif">VISITS</text></g><g class="relationship" transform="translate(-464.28190883038513 -100.75974403991142) rotate(426.7173259380911)"><path class="outline" fill="#A5ABB6" stroke="none" d="M 25 0.5 L 112.01287240608386 0.5 L 112.01287240608386 -0.5 L 25 -0.5 Z M 143.35271615608386 0.5 L 230.36558856216772 0.5 L 230.36558856216772 3.5 L 237.36558856216772 0 L 230.36558856216772 -3.5 L 230.36558856216772 -0.5 L 143.35271615608386 -0.5 Z"/><text text-anchor="middle" pointer-events="none" font-size="8px" fill="#000000" x="127.68279428108386" y="3" font-family="sans-serif">VISITS</text></g><g class="relationship" transform="translate(-257.16032735889365 -1.6370556247036276) rotate(267.76085802165545)"><path class="outline" fill="#A5ABB6" stroke="none" d="M 25 0.5 L 61.208901043502635 0.5 L 61.208901043502635 -0.5 L 25 -0.5 Z M 92.54874479350264 0.5 L 128.75764583700527 0.5 L 128.75764583700527 3.5 L 135.75764583700527 0 L 128.75764583700527 -3.5 L 128.75764583700527 -0.5 L 92.54874479350264 -0.5 Z"/><text text-anchor="middle" pointer-events="none" font-size="8px" fill="#000000" x="76.87882291850264" y="3" transform="rotate(180 76.87882291850264 0)" font-family="sans-serif">VISITS</text></g><g class="relationship" transform="translate(-257.16032735889365 -1.6370556247036276) rotate(486.08896225373934)"><path class="outline" fill="#A5ABB6" stroke="none" d="M 25 0.5 L 68.6142726930524 0.5 L 68.6142726930524 -0.5 L 25 -0.5 Z M 99.9541164430524 0.5 L 143.5683891361048 0.5 L 143.5683891361048 3.5 L 150.5683891361048 0 L 143.5683891361048 -3.5 L 143.5683891361048 -0.5 L 99.9541164430524 -0.5 Z"/><text text-anchor="middle" pointer-events="none" font-size="8px" fill="#000000" x="84.2841945680524" y="3" transform="rotate(180 84.2841945680524 0)" font-family="sans-serif">VISITS</text></g><g class="relationship" transform="translate(-75.05008737506608 66.55543515129969) rotate(396.5291398785049)"><path class="outline" fill="#A5ABB6" stroke="none" d="M 25 0.5 L 110.485082728827 0.5 L 110.485082728827 -0.5 L 25 -0.5 Z M 141.824926478827 0.5 L 227.310009207654 0.5 L 227.310009207654 3.5 L 234.310009207654 0 L 227.310009207654 -3.5 L 227.310009207654 -0.5 L 141.824926478827 -0.5 Z"/><text text-anchor="middle" pointer-events="none" font-size="8px" fill="#000000" x="126.155004603827" y="3" font-family="sans-serif">VISITS</text></g><g class="relationship" transform="translate(-75.05008737506608 66.55543515129969) rotate(230.53574313551843)"><path class="outline" fill="#A5ABB6" stroke="none" d="M 25 0.5 L 129.03026952308906 0.5 L 129.03026952308906 -0.5 L 25 -0.5 Z M 160.37011327308906 0.5 L 264.4003827961781 0.5 L 264.4003827961781 3.5 L 271.4003827961781 0 L 264.4003827961781 -3.5 L 264.4003827961781 -0.5 L 160.37011327308906 -0.5 Z"/><text text-anchor="middle" pointer-events="none" font-size="8px" fill="#000000" x="144.70019139808906" y="3" transform="rotate(180 144.70019139808906 0)" font-family="sans-serif">VISITS</text></g><g class="relationship" transform="translate(-75.05008737506608 66.55543515129969) rotate(525.529614236144)"><path class="outline" fill="#A5ABB6" stroke="none" d="M 25 0.5 L 128.27093838529984 0.5 L 128.27093838529984 -0.5 L 25 -0.5 Z M 159.61078213529984 0.5 L 262.8817205205997 0.5 L 262.8817205205997 3.5 L 269.8817205205997 0 L 262.8817205205997 -3.5 L 262.8817205205997 -0.5 L 159.61078213529984 -0.5 Z"/><text text-anchor="middle" pointer-events="none" font-size="8px" fill="#000000" x="143.94086026029984" y="3" transform="rotate(180 143.94086026029984 0)" font-family="sans-serif">VISITS</text></g><g class="relationship" transform="translate(-256.1485741734706 254.28571975806273) rotate(227.52039208157788)"><path class="outline" fill="#A5ABB6" stroke="none" d="M 25 0.5 L 58.14711177272622 0.5 L 58.14711177272622 -0.5 L 25 -0.5 Z M 89.48695552272622 0.5 L 122.63406729545244 0.5 L 122.63406729545244 3.5 L 129.63406729545244 0 L 122.63406729545244 -3.5 L 122.63406729545244 -0.5 L 89.48695552272622 -0.5 Z"/><text text-anchor="middle" pointer-events="none" font-size="8px" fill="#000000" x="73.81703364772622" y="3" transform="rotate(180 73.81703364772622 0)" font-family="sans-serif">VISITS</text></g><g class="relationship" transform="translate(-360.5772526482235 140.24035211714892) rotate(467.7034720634955)"><path class="outline" fill="#A5ABB6" stroke="none" d="M 25 0.5 L 49.51097384689247 0.5 L 49.51097384689247 -0.5 L 25 -0.5 Z M 91.51878634689247 0.5 L 116.02976019378494 0.5 L 116.02976019378494 3.5 L 123.02976019378494 0 L 116.02976019378494 -3.5 L 116.02976019378494 -0.5 L 91.51878634689247 -0.5 Z"/><text text-anchor="middle" pointer-events="none" font-size="8px" fill="#000000" x="70.51488009689247" y="3" transform="rotate(180 70.51488009689247 0)" font-family="sans-serif">EQUIPED</text></g><g class="relationship" transform="translate(-360.5772526482235 140.24035211714892) rotate(326.53027250838545)"><path class="outline" fill="#A5ABB6" stroke="none" d="M 25 0.5 L 197.9447090476468 0.5 L 197.9447090476468 -0.5 L 25 -0.5 Z M 220.3939277976468 0.5 L 393.3386368452936 0.5 L 393.3386368452936 3.5 L 400.3386368452936 0 L 393.3386368452936 -3.5 L 393.3386368452936 -0.5 L 220.3939277976468 -0.5 Z"/><text text-anchor="middle" pointer-events="none" font-size="8px" fill="#000000" x="209.1693184226468" y="3" font-family="sans-serif">HAS</text></g><g class="relationship" transform="translate(-360.5772526482235 140.24035211714892) rotate(207.54446326477455)"><path class="outline" fill="#A5ABB6" stroke="none" d="M 25 0.5 L 48.70687652859782 0.5 L 48.70687652859782 -0.5 L 25 -0.5 Z M 91.89828277859782 0.5 L 115.60515930719563 0.5 L 115.60515930719563 3.5 L 122.60515930719563 0 L 115.60515930719563 -3.5 L 115.60515930719563 -0.5 L 91.89828277859782 -0.5 Z"/><text text-anchor="middle" pointer-events="none" font-size="8px" fill="#000000" x="70.30257965359782" y="3" transform="rotate(180 70.30257965359782 0)" font-family="sans-serif">LOCATED</text></g><g class="relationship" transform="translate(-263.44120139387667 -162.27195630451448) rotate(274.5402610335745)"><path class="outline" fill="#A5ABB6" stroke="none" d="M 25 0.5 L 50.19983876630192 0.5 L 50.19983876630192 -0.5 L 25 -0.5 Z M 92.20765126630192 0.5 L 117.40749003260385 0.5 L 117.40749003260385 3.5 L 124.40749003260385 0 L 117.40749003260385 -3.5 L 117.40749003260385 -0.5 L 92.20765126630192 -0.5 Z"/><text text-anchor="middle" pointer-events="none" font-size="8px" fill="#000000" x="71.20374501630192" y="3" font-family="sans-serif">EQUIPED</text></g><g class="relationship" transform="translate(-263.44120139387667 -162.27195630451448) rotate(337.0327276024195)"><path class="outline" fill="#A5ABB6" stroke="none" d="M 25 0.5 L 203.08252292208135 0.5 L 203.08252292208135 -0.5 L 25 -0.5 Z M 225.53174167208135 0.5 L 403.6142645941627 0.5 L 403.6142645941627 3.5 L 410.6142645941627 0 L 403.6142645941627 -3.5 L 403.6142645941627 -0.5 L 225.53174167208135 -0.5 Z"/><text text-anchor="middle" pointer-events="none" font-size="8px" fill="#000000" x="214.30713229708135" y="3" font-family="sans-serif">HAS</text></g><g class="relationship" transform="translate(-263.44120139387667 -162.27195630451448) rotate(233.29188491356484)"><path class="outline" fill="#A5ABB6" stroke="none" d="M 25 0.5 L 48.84011181976322 0.5 L 48.84011181976322 -0.5 L 25 -0.5 Z M 92.03151806976322 0.5 L 115.87162988952645 0.5 L 115.87162988952645 3.5 L 122.87162988952645 0 L 115.87162988952645 -3.5 L 115.87162988952645 -0.5 L 92.03151806976322 -0.5 Z"/><text text-anchor="middle" pointer-events="none" font-size="8px" fill="#000000" x="70.43581494476322" y="3" transform="rotate(180 70.43581494476322 0)" font-family="sans-serif">LOCATED</text></g><g class="relationship" transform="translate(133.31956938505664 220.90493148006078) rotate(377.73103002285825)"><path class="outline" fill="#A5ABB6" stroke="none" d="M 25 0.5 L 51.0919802981972 0.5 L 51.0919802981972 -0.5 L 25 -0.5 Z M 93.0997927981972 0.5 L 119.1917730963944 0.5 L 119.1917730963944 3.5 L 126.1917730963944 0 L 119.1917730963944 -3.5 L 119.1917730963944 -0.5 L 93.0997927981972 -0.5 Z"/><text text-anchor="middle" pointer-events="none" font-size="8px" fill="#000000" x="72.0958865481972" y="3" font-family="sans-serif">EQUIPED</text></g><g class="relationship" transform="translate(133.31956938505664 220.90493148006078) rotate(341.79560291063444)"><path class="outline" fill="#A5ABB6" stroke="none" d="M 25 0.5 L 92.84635836784108 0.5 L 92.84635836784108 -0.5 L 25 -0.5 Z M 115.29557711784108 0.5 L 183.14193548568215 0.5 L 183.14193548568215 3.5 L 190.14193548568215 0 L 183.14193548568215 -3.5 L 183.14193548568215 -0.5 L 115.29557711784108 -0.5 Z"/><text text-anchor="middle" pointer-events="none" font-size="8px" fill="#000000" x="104.07096774284108" y="3" font-family="sans-serif">HAS</text></g><g class="relationship" transform="translate(133.31956938505664 220.90493148006078) rotate(490.3465378478104)"><path class="outline" fill="#A5ABB6" stroke="none" d="M 25 0.5 L 51.19883255610661 0.5 L 51.19883255610661 -0.5 L 25 -0.5 Z M 94.39023880610661 0.5 L 120.58907136221322 0.5 L 120.58907136221322 3.5 L 127.58907136221322 0 L 120.58907136221322 -3.5 L 120.58907136221322 -0.5 L 94.39023880610661 -0.5 Z"/><text text-anchor="middle" pointer-events="none" font-size="8px" fill="#000000" x="72.79453568110661" y="3" transform="rotate(180 72.79453568110661 0)" font-family="sans-serif">LOCATED</text></g></g><g class="layer nodes"><g class="node" aria-label="graph-node0" transform="translate(337.6932377107307,153.69290800484632)"><circle class="outline" cx="0" cy="0" r="25" fill="#FFC454" stroke="#d7a013" stroke-width="2px"/><text class="caption" text-anchor="middle" pointer-events="none" x="0" y="5" font-size="10px" fill="#2A2C34" font-family="sans-serif"> 0</text></g><g class="node" aria-label="graph-node1" transform="translate(137.6410015693333,-332.2509373112603)"><circle class="outline" cx="0" cy="0" r="25" fill="#FFC454" stroke="#d7a013" stroke-width="2px"/><text class="caption" text-anchor="middle" pointer-events="none" x="0" y="5" font-size="10px" fill="#2A2C34" font-family="sans-serif"> 1</text></g><g class="node" aria-label="graph-node2" transform="translate(-5.769406645199695,-94.33234111057334)"><circle class="outline" cx="0" cy="0" r="25" fill="#FFC454" stroke="#d7a013" stroke-width="2px"/><text class="caption" text-anchor="middle" pointer-events="none" x="0" y="5" font-size="10px" fill="#2A2C34" font-family="sans-serif"> 2</text></g><g class="node" aria-label="graph-node3" transform="translate(478.90543118091875,37.53159833692782)"><circle class="outline" cx="0" cy="0" r="25" fill="#DA7194" stroke="#cc3c6c" stroke-width="2px"/><text class="caption" text-anchor="middle" pointer-events="none" x="0" y="5" font-size="10px" fill="#FFFFFF" font-family="sans-serif"> Manhatt…</text></g><g class="node" aria-label="graph-node4" transform="translate(384.94719372244685,4.928412421306401)"><circle class="outline" cx="0" cy="0" r="25" fill="#DA7194" stroke="#cc3c6c" stroke-width="2px"/><text class="caption" text-anchor="middle" pointer-events="none" x="0" y="0" font-size="10px" fill="#FFFFFF" font-family="sans-serif"> Old</text><text class="caption" text-anchor="middle" pointer-events="none" x="0" y="10" font-size="10px" fill="#FFFFFF" font-family="sans-serif"> Fashi…</text></g><g class="node" aria-label="graph-node5" transform="translate(173.633688012031,-106.512119708152)"><circle class="outline" cx="0" cy="0" r="25" fill="#DA7194" stroke="#cc3c6c" stroke-width="2px"/><text class="caption" text-anchor="middle" pointer-events="none" x="0" y="0" font-size="10px" fill="#FFFFFF" font-family="sans-serif"> Vodka</text><text class="caption" text-anchor="middle" pointer-events="none" x="0" y="10" font-size="10px" fill="#FFFFFF" font-family="sans-serif"> Martini</text></g><g class="node" aria-label="graph-node6" transform="translate(319.0136100936598,-290.0354415751825)"><circle class="outline" cx="0" cy="0" r="25" fill="#DA7194" stroke="#cc3c6c" stroke-width="2px"/><text class="caption" text-anchor="middle" pointer-events="none" x="0" y="0" font-size="10px" fill="#FFFFFF" font-family="sans-serif"> Bloody</text><text class="caption" text-anchor="middle" pointer-events="none" x="0" y="10" font-size="10px" fill="#FFFFFF" font-family="sans-serif"> Mary</text></g><g class="node" aria-label="graph-node7" transform="translate(226.0846324814321,57.23072464446314)"><circle class="outline" cx="0" cy="0" r="25" fill="#DA7194" stroke="#cc3c6c" stroke-width="2px"/><text class="caption" text-anchor="middle" pointer-events="none" x="0" y="5" font-size="10px" fill="#FFFFFF" font-family="sans-serif"> Gin&amp;Tonic</text></g><g class="node" aria-label="graph-node8" transform="translate(124.50340940363937,110.80734343977115)"><circle class="outline" cx="0" cy="0" r="25" fill="#DA7194" stroke="#cc3c6c" stroke-width="2px"/><text class="caption" text-anchor="middle" pointer-events="none" x="0" y="5" font-size="10px" fill="#FFFFFF" font-family="sans-serif"> Princess</text></g><g class="node" aria-label="graph-node9" transform="translate(-67.11606150761112,-259.6319008679459)"><circle class="outline" cx="0" cy="0" r="25" fill="#DA7194" stroke="#cc3c6c" stroke-width="2px"/><text class="caption" text-anchor="middle" pointer-events="none" x="0" y="5" font-size="10px" fill="#FFFFFF" font-family="sans-serif"> Sangria</text></g><g class="node" aria-label="graph-node10" transform="translate(423.678966010856,-129.82497799579966)"><circle class="outline" cx="0" cy="0" r="25" fill="#569480" stroke="#447666" stroke-width="2px"/><text class="caption" text-anchor="middle" pointer-events="none" x="0" y="5" font-size="10px" fill="#FFFFFF" font-family="sans-serif"> Long</text></g><g class="node" aria-label="graph-node11" transform="translate(51.38350948866709,-200.69672937152447)"><circle class="outline" cx="0" cy="0" r="25" fill="#569480" stroke="#447666" stroke-width="2px"/><text class="caption" text-anchor="middle" pointer-events="none" x="0" y="5" font-size="10px" fill="#FFFFFF" font-family="sans-serif"> Middle</text></g><g class="node" aria-label="graph-node12" transform="translate(273.55446455590834,-183.96394699748004)"><circle class="outline" cx="0" cy="0" r="25" fill="#569480" stroke="#447666" stroke-width="2px"/><text class="caption" text-anchor="middle" pointer-events="none" x="0" y="5" font-size="10px" fill="#FFFFFF" font-family="sans-serif"> Short</text></g><g class="node" aria-label="graph-node13" transform="translate(-251.61416458286388,-311.21059896689934)"><circle class="outline" cx="0" cy="0" r="25" fill="#A5ABB6" stroke="#9AA1AC" stroke-width="2px"/><text class="caption" text-anchor="middle" pointer-events="none" x="0" y="5" font-size="10px" fill="#FFFFFF" font-family="sans-serif"> 150</text></g><g class="node" aria-label="graph-node14" transform="translate(277.3292319864658,266.9502279766619)"><circle class="outline" cx="0" cy="0" r="25" fill="#A5ABB6" stroke="#9AA1AC" stroke-width="2px"/><text class="caption" text-anchor="middle" pointer-events="none" x="0" y="5" font-size="10px" fill="#FFFFFF" font-family="sans-serif"> 100</text></g><g class="node" aria-label="graph-node15" transform="translate(-405.5917394642453,281.25987516172484)"><circle class="outline" cx="0" cy="0" r="25" fill="#A5ABB6" stroke="#9AA1AC" stroke-width="2px"/><text class="caption" text-anchor="middle" pointer-events="none" x="0" y="5" font-size="10px" fill="#FFFFFF" font-family="sans-serif"> 50</text></g><g class="node" aria-label="graph-node16" transform="translate(-491.451697071963,71.9822914145467)"><circle class="outline" cx="0" cy="0" r="25" fill="#A5ABB6" stroke="#9AA1AC" stroke-width="2px"/><text class="caption" text-anchor="middle" pointer-events="none" x="0" y="0" font-size="10px" fill="#FFFFFF" font-family="sans-serif"> Czech</text><text class="caption" text-anchor="middle" pointer-events="none" x="0" y="10" font-size="10px" fill="#FFFFFF" font-family="sans-serif"> Repub…</text></g><g class="node" aria-label="graph-node17" transform="translate(-351.8297972783611,-280.8193098968844)"><circle class="outline" cx="0" cy="0" r="25" fill="#A5ABB6" stroke="#9AA1AC" stroke-width="2px"/><text class="caption" text-anchor="middle" pointer-events="none" x="0" y="0" font-size="10px" fill="#FFFFFF" font-family="sans-serif"> Czech</text><text class="caption" text-anchor="middle" pointer-events="none" x="0" y="10" font-size="10px" fill="#FFFFFF" font-family="sans-serif"> Repub…</text></g><g class="node" aria-label="graph-node18" transform="translate(34.53202597355526,337.1995829731683)"><circle class="outline" cx="0" cy="0" r="25" fill="#A5ABB6" stroke="#9AA1AC" stroke-width="2px"/><text class="caption" text-anchor="middle" pointer-events="none" x="0" y="0" font-size="10px" fill="#FFFFFF" font-family="sans-serif"> Czech</text><text class="caption" text-anchor="middle" pointer-events="none" x="0" y="10" font-size="10px" fill="#FFFFFF" font-family="sans-serif"> Repub…</text></g><g class="node" aria-label="graph-node19" transform="translate(-180.3515956587023,168.383902323026)"><circle class="outline" cx="0" cy="0" r="25" fill="#A5ABB6" stroke="#9AA1AC" stroke-width="2px"/><text class="caption" text-anchor="middle" pointer-events="none" x="0" y="5" font-size="10px" fill="#FFFFFF" font-family="sans-serif"> waiter</text></g><g class="node" aria-label="graph-node20" transform="translate(3.2476896095073187,43.38552096987699)"><circle class="outline" cx="0" cy="0" r="25" fill="#A5ABB6" stroke="#9AA1AC" stroke-width="2px"/><text class="caption" text-anchor="middle" pointer-events="none" x="0" y="5" font-size="10px" fill="#FFFFFF" font-family="sans-serif"> manager</text></g><g class="node" aria-label="graph-node21" transform="translate(221.3423765091115,349.2647510900346)"><circle class="outline" cx="0" cy="0" r="25" fill="#A5ABB6" stroke="#9AA1AC" stroke-width="2px"/><text class="caption" text-anchor="middle" pointer-events="none" x="0" y="5" font-size="10px" fill="#FFFFFF" font-family="sans-serif"> bartender</text></g><g class="node" aria-label="graph-node22" transform="translate(-496.9637148847439,196.842916431148)"><circle class="outline" cx="0" cy="0" r="25" fill="#A5ABB6" stroke="#9AA1AC" stroke-width="2px"/><text class="caption" text-anchor="middle" pointer-events="none" x="0" y="5" font-size="10px" fill="#FFFFFF" font-family="sans-serif"> hostess</text></g><g class="node" aria-label="graph-node23" transform="translate(125.70366435787206,377.13002627863233)"><circle class="outline" cx="0" cy="0" r="25" fill="#A5ABB6" stroke="#9AA1AC" stroke-width="2px"/><text class="caption" text-anchor="middle" pointer-events="none" x="0" y="5" font-size="10px" fill="#FFFFFF" font-family="sans-serif"> cleaner</text></g><g class="node" aria-label="graph-node24" transform="translate(-464.28190883038513,-100.75974403991142)"><circle class="outline" cx="0" cy="0" r="25" fill="#A5ABB6" stroke="#9AA1AC" stroke-width="2px"/><text class="caption" text-anchor="middle" pointer-events="none" x="0" y="5" font-size="10px" fill="#FFFFFF" font-family="sans-serif"> Annalise</text></g><g class="node" aria-label="graph-node25" transform="translate(-257.16032735889365,-1.6370556247036276)"><circle class="outline" cx="0" cy="0" r="25" fill="#A5ABB6" stroke="#9AA1AC" stroke-width="2px"/><text class="caption" text-anchor="middle" pointer-events="none" x="0" y="5" font-size="10px" fill="#FFFFFF" font-family="sans-serif"> Laurel</text></g><g class="node" aria-label="graph-node26" transform="translate(-43.24478308148855,216.38899957449428)"><circle class="outline" cx="0" cy="0" r="25" fill="#A5ABB6" stroke="#9AA1AC" stroke-width="2px"/><text class="caption" text-anchor="middle" pointer-events="none" x="0" y="5" font-size="10px" fill="#FFFFFF" font-family="sans-serif"> Connor</text></g><g class="node" aria-label="graph-node27" transform="translate(-75.05008737506608,66.55543515129969)"><circle class="outline" cx="0" cy="0" r="25" fill="#A5ABB6" stroke="#9AA1AC" stroke-width="2px"/><text class="caption" text-anchor="middle" pointer-events="none" x="0" y="5" font-size="10px" fill="#FFFFFF" font-family="sans-serif"> Wes</text></g><g class="node" aria-label="graph-node28" transform="translate(-256.1485741734706,254.28571975806273)"><circle class="outline" cx="0" cy="0" r="25" fill="#A5ABB6" stroke="#9AA1AC" stroke-width="2px"/><text class="caption" text-anchor="middle" pointer-events="none" x="0" y="5" font-size="10px" fill="#FFFFFF" font-family="sans-serif"> Rebecca</text></g><g class="node" aria-label="graph-node32" transform="translate(-360.5772526482235,140.24035211714892)"><circle class="outline" cx="0" cy="0" r="25" fill="#4C8EDA" stroke="#2870c2" stroke-width="2px"/><text class="caption" text-anchor="middle" pointer-events="none" x="0" y="0" font-size="10px" fill="#FFFFFF" font-family="sans-serif"> Rapture</text><text class="caption" text-anchor="middle" pointer-events="none" x="0" y="10" font-size="10px" fill="#FFFFFF" font-family="sans-serif"> Morning</text></g><g class="node" aria-label="graph-node33" transform="translate(-263.44120139387667,-162.27195630451448)"><circle class="outline" cx="0" cy="0" r="25" fill="#4C8EDA" stroke="#2870c2" stroke-width="2px"/><text class="caption" text-anchor="middle" pointer-events="none" x="0" y="0" font-size="10px" fill="#FFFFFF" font-family="sans-serif"> Rapture</text><text class="caption" text-anchor="middle" pointer-events="none" x="0" y="10" font-size="10px" fill="#FFFFFF" font-family="sans-serif"> Aftern…</text></g><g class="node" aria-label="graph-node34" transform="translate(133.31956938505664,220.90493148006078)"><circle class="outline" cx="0" cy="0" r="25" fill="#4C8EDA" stroke="#2870c2" stroke-width="2px"/><text class="caption" text-anchor="middle" pointer-events="none" x="0" y="0" font-size="10px" fill="#FFFFFF" font-family="sans-serif"> Rapture</text><text class="caption" text-anchor="middle" pointer-events="none" x="0" y="10" font-size="10px" fill="#FFFFFF" font-family="sans-serif"> Evening</text></g></g></svg>